#!OML:ASF F:\VICON\USERDATA\INSTALL\rory3\rory3.ASF
:FULLY-SPECIFIED
:DEGREES
2177
root -1.5355 17.2524 -1.07117 -5.11029 0.974441 0.199934
lowerback 6.67808 -0.174726 -2.49736
upperback -1.67683 -0.316795 2.55246
thorax -5.47269 -0.0281627 4.10912
lowerneck -30.56 -0.624594 -9.46807
upperneck 25.1668 2.6661 2.92879
head 13.4004 0.63967 3.24792
rclavicle 1.59525e-014 -3.97569e-015
rhumerus -13.0373 -27.0881 -10.5459
rradius 110.519
rwrist 20.4227
rhand -44.5109 5.93574
rfingers 7.12502
rthumb -17.313 -23.3131
lclavicle 1.59525e-014 -3.97569e-015
lhumerus -20.496 28.577 12.0186
lradius 116.654
lwrist -5.31434
lhand -32.1242 18.7224
lfingers 7.12502
lthumb -5.36862 48.6344
rfemur -6.13082 -0.209175 8.65784
rtibia 35.9669
rfoot -20.1884 -3.3169
rtoes -6.61593
lfemur -4.4182 4.37066 -10.9964
ltibia 33.7583
lfoot -19.1924 3.22258
ltoes -24.5637
2178
root -1.5357 17.2553 -1.08812 -4.87441 0.991495 0.213372
lowerback 6.70491 -0.197709 -2.4847
upperback -1.48678 -0.34946 2.52816
thorax -5.28542 -0.0518967 4.07755
lowerneck -30.2901 -0.665116 -9.47429
upperneck 25.1362 2.57137 2.95099
head 13.3431 0.603247 3.23468
rclavicle -3.67752e-015 -1.59028e-015
rhumerus -15.3118 -25.938 -11.9199
rradius 112.18
rwrist 20.9171
rhand -44.4575 6.30953
rfingers 7.12502
rthumb -17.2615 -22.9439
lclavicle -3.67752e-015 -1.59028e-015
lhumerus -22.7138 27.4346 13.6944
lradius 117.893
lwrist -5.42501
lhand -31.8887 18.5594
lfingers 7.12502
lthumb -5.14123 48.4771
rfemur -6.51304 -0.383177 8.62209
rtibia 36.0595
rfoot -20.0949 -3.27539
rtoes -6.64367
lfemur -4.80394 4.48678 -11.0219
ltibia 33.899
lfoot -19.1637 3.1729
ltoes -24.6429
2179
root -1.53709 17.2566 -1.10801 -4.61227 0.991519 0.145337
lowerback 6.78987 -0.195512 -2.41264
upperback -1.31346 -0.342992 2.523
thorax -5.15265 -0.0562876 4.02924
lowerneck -30.3027 -0.739959 -9.25453
upperneck 25.377 2.45097 2.69759
head 13.464 0.524433 3.08181
rclavicle 6.80837e-015 -1.90833e-014
rhumerus -17.5795 -24.7409 -13.3592
rradius 113.668
rwrist 21.4609
rhand -44.5016 6.55525
rfingers 7.12502
rthumb -17.3041 -22.6944
lclavicle 6.80837e-015 -1.90833e-014
lhumerus -24.7257 26.3396 15.578
lradius 118.75
lwrist -5.80155
lhand -31.7022 18.2577
lfingers 7.12502
lthumb -4.96117 48.1796
rfemur -6.92345 -0.499286 8.68802
rtibia 36.16
rfoot -20.0252 -3.26079
rtoes -6.67234
lfemur -5.23671 4.60569 -10.9532
ltibia 34.0439
lfoot -19.1337 3.06437
ltoes -24.5537
2180
root -1.53633 17.2557 -1.12897 -4.30887 0.975503 0.192859
lowerback 6.85337 -0.175576 -2.42112
upperback -1.15595 -0.320985 2.4858
thorax -5.0256 -0.0505713 3.99125
lowerneck -30.4647 -0.882355 -8.99542
upperneck 25.8219 2.28583 2.30105
head 13.7073 0.399913 2.86244
rclavicle 8.39865e-015 -2.14687e-014
rhumerus -19.7183 -23.6363 -14.8735
rradius 114.873
rwrist 22.0359
rhand -44.501 7.03491
rfingers 7.12502
rthumb -17.3034 -22.2148
lclavicle 8.39865e-015 -2.14687e-014
lhumerus -26.5301 25.3322 17.6816
lradius 119.285
lwrist -6.40929
lhand -31.6082 17.8505
lfingers 7.12502
lthumb -4.8704 47.7745
rfemur -7.39006 -0.642797 8.60033
rtibia 36.2571
rfoot -19.9133 -3.14684
rtoes -6.34399
lfemur -5.73546 4.7491 -11.0339
ltibia 34.2216
lfoot -19.1007 3.02355
ltoes -24.7062
2181
root -1.5372 17.2547 -1.14977 -4.05083 0.890062 0.193734
lowerback 6.98181 -0.165408 -2.40418
upperback -1.03246 -0.309552 2.4666
thorax -4.97019 -0.048598 3.96037
lowerneck -30.328 -0.912913 -8.92886
upperneck 25.9767 2.21201 2.26153
head 13.7533 0.363184 2.8237
rclavicle -1.27222e-014 2.06736e-014
rhumerus -21.6777 -22.4915 -16.4284
rradius 115.846
rwrist 22.5513
rhand -44.157 7.63478
rfingers 7.12502
rthumb -16.9723 -21.6437
lclavicle -1.27222e-014 2.06736e-014
lhumerus -28.2935 24.4726 19.6828
lradius 119.6
lwrist -6.80206
lhand -31.4422 17.0392
lfingers 7.12502
lthumb -4.71009 46.9669
rfemur -7.8522 -0.689673 8.59879
rtibia 36.3727
rfoot -19.8403 -3.04081
rtoes -6.01447
lfemur -6.17662 4.9237 -11.0366
ltibia 34.4051
lfoot -19.0874 2.96274
ltoes -24.6449
2182
root -1.54085 17.2552 -1.17251 -3.86802 0.79081 -0.00683234
lowerback 7.29514 -0.173914 -2.25051
upperback -0.954992 -0.309321 2.5173
thorax -5.06695 -0.0513662 3.92983
lowerneck -29.8714 -0.901315 -9.03108
upperneck 25.9224 2.15283 2.47382
head 13.6401 0.363387 2.90774
rclavicle 1.23495e-014 -5.56597e-015
rhumerus -23.4546 -21.1996 -18.0332
rradius 116.595
rwrist 22.9419
rhand -43.8113 8.02878
rfingers 7.12502
rthumb -16.6395 -21.278
lclavicle 1.23495e-014 -5.56597e-015
lhumerus -30.041 23.7145 21.4984
lradius 119.75
lwrist -7.12537
lhand -30.9526 16.3721
lfingers 7.12502
lthumb -4.23738 46.3097
rfemur -8.24747 -0.644634 8.85858
rtibia 36.4949
rfoot -19.796 -3.0581
rtoes -5.94253
lfemur -6.54491 5.12707 -10.7827
ltibia 34.5776
lfoot -19.0505 2.85564
ltoes -24.734
2183
root -1.54273 17.2554 -1.19736 -3.66088 0.792048 -0.076169
lowerback 7.58564 -0.189751 -2.19107
upperback -0.837171 -0.329217 2.51929
thorax -5.10654 -0.0637995 3.90315
lowerneck -29.5856 -0.949717 -9.23112
upperneck 25.9262 2.03364 2.80965
head 13.5859 0.342954 3.04953
rclavicle 2.5345e-015 -1.27222e-014
rhumerus -25.0373 -20.0986 -19.6765
rradius 117.046
rwrist 23.3209
rhand -43.4775 8.34199
rfingers 7.12502
rthumb -16.3181 -20.9914
lclavicle 2.5345e-015 -1.27222e-014
lhumerus -31.4863 23.0547 23.3931
lradius 119.582
lwrist -7.64994
lhand -30.6553 16.1271
lfingers 7.12502
lthumb -3.9503 46.0703
rfemur -8.6307 -0.732136 8.95154
rtibia 36.6127
rfoot -19.7539 -3.19895
rtoes -6.35584
lfemur -6.96372 5.23251 -10.7023
ltibia 34.7327
lfoot -18.9701 2.76015
ltoes -24.6429
2184
root -1.5418 17.2569 -1.22233 -3.36903 0.801861 -0.0105907
lowerback 7.7661 -0.218695 -2.23562
upperback -0.703237 -0.376783 2.48894
thorax -5.06424 -0.0892268 3.90304
lowerneck -29.4529 -1.00019 -9.38785
upperneck 25.995 1.94452 3.03987
head 13.5899 0.320642 3.1513
rclavicle -1.01504e-014 -7.15625e-015
rhumerus -26.3461 -19.1257 -21.3726
rradius 117.255
rwrist 23.6095
rhand -43.2188 8.3507
rfingers 7.12502
rthumb -16.0691 -21.003
lclavicle -1.01504e-014 -7.15625e-015
lhumerus -32.8765 22.346 25.1749
lradius 119.185
lwrist -8.17809
lhand -30.8974 16.4249
lfingers 7.12502
lthumb -4.18405 46.3636
rfemur -9.0974 -0.89557 8.8581
rtibia 36.7183
rfoot -19.6291 -3.15827
rtoes -6.39686
lfemur -7.44444 5.34703 -10.8071
ltibia 34.8535
lfoot -18.9064 2.70755
ltoes -24.4754
